<svg width="21" height="21" viewBox="0 0 21 21" fill="none" xmlns="http://www.w3.org/2000/svg">
<path d="M18 9.31888H11.0416C10.3583 7.37722 8.50831 5.98555 6.33331 5.98555C3.57498 5.98555 1.33331 8.22722 1.33331 10.9855C1.33331 13.7439 3.57498 15.9855 6.33331 15.9855C8.50831 15.9855 10.3583 14.5939 11.0416 12.6522H11.3333L13 14.3189L14.6666 12.6522L16.3333 14.3189L19.6666 10.9522L18 9.31888ZM6.33331 13.4855C4.95831 13.4855 3.83331 12.3605 3.83331 10.9855C3.83331 9.61055 4.95831 8.48555 6.33331 8.48555C7.70831 8.48555 8.83331 9.61055 8.83331 10.9855C8.83331 12.3605 7.70831 13.4855 6.33331 13.4855Z" fill="#2E2E2E"/>
</svg>
