<svg width="18" height="20" viewBox="0 0 18 20" fill="none" xmlns="http://www.w3.org/2000/svg">
<path d="M10.7969 16.6354C11.0655 16.6354 11.2906 16.5446 11.4723 16.3629C11.6539 16.1812 11.7448 15.9561 11.7448 15.6875C11.7448 15.4189 11.6539 15.1938 11.4723 15.0121C11.2906 14.8304 11.0655 14.7396 10.7969 14.7396C10.5283 14.7396 10.3032 14.8304 10.1215 15.0121C9.9398 15.1938 9.84896 15.4189 9.84896 15.6875C9.84896 15.9561 9.9398 16.1812 10.1215 16.3629C10.3032 16.5446 10.5283 16.6354 10.7969 16.6354ZM14.1146 16.6354C14.3832 16.6354 14.6083 16.5446 14.79 16.3629C14.9717 16.1812 15.0625 15.9561 15.0625 15.6875C15.0625 15.4189 14.9717 15.1938 14.79 15.0121C14.6083 14.8304 14.3832 14.7396 14.1146 14.7396C13.846 14.7396 13.6209 14.8304 13.4392 15.0121C13.2575 15.1938 13.1667 15.4189 13.1667 15.6875C13.1667 15.9561 13.2575 16.1812 13.4392 16.3629C13.6209 16.5446 13.846 16.6354 14.1146 16.6354ZM0.84375 11.1849V1.94272C0.84375 1.56355 0.985937 1.23178 1.27031 0.947406C1.55469 0.663031 1.88646 0.520844 2.26562 0.520844H16.4844C16.8635 0.520844 17.1953 0.663031 17.4797 0.947406C17.7641 1.23178 17.9062 1.56355 17.9062 1.94272V11.1849H0.84375ZM2.26562 19.4792C1.88646 19.4792 1.55469 19.337 1.27031 19.0526C0.985937 18.7682 0.84375 18.4365 0.84375 18.0573V12.6068H17.9062V18.0573C17.9062 18.4365 17.7641 18.7682 17.4797 19.0526C17.1953 19.337 16.8635 19.4792 16.4844 19.4792H2.26562Z" fill="#2E2E2E"/>
</svg>
